# xmcd
#
# Track frame offsets: 
#        150
#        18896
#        33783
#        54273
#        68753
#        82451
#        95460
#        107378
#        124478
#        133703
#        149416
#        166119
#        178830
#        197071
#        210168
#
# Disc length: 3064 seconds
#
# Revision: 0
# Processed by: cddbd v1.5.2PL0 Copyright (c) Steve Scherf et al.
# Submitted via: ExactAudioCopyFreeDBPlugin 1.0
#
DISCID=ca0bf60f
DTITLE=Krausberry - Krausberry
DYEAR=1990
DGENRE=Blues
TTITLE0=Náš dům
TTITLE1=Tak ber
TTITLE2=Čestný mistr
TTITLE3=Potom
TTITLE4=Ohníčky
TTITLE5=Hospodská holka
TTITLE6=Před chvílí byla tma
TTITLE7=Náměstek
TTITLE8=V konzumu
TTITLE9=Svatba nebude
TTITLE10=Pátý pád
TTITLE11=Rodinná pohoda
TTITLE12=Na tenkým ledě
TTITLE13=Camp
TTITLE14=Ubrusy
EXTD=
EXTT0=
EXTT1=
EXTT2=
EXTT3=
EXTT4=
EXTT5=
EXTT6=
EXTT7=
EXTT8=
EXTT9=
EXTT10=
EXTT11=
EXTT12=
EXTT13=
EXTT14=
PLAYORDER=
